<svg width="103" height="65" viewBox="0 0 103 65" fill="none" xmlns="http://www.w3.org/2000/svg">
<path d="M42.1145 42.1637C41.7353 41.0387 41.2043 40.04 40.5091 39.1425C39.8139 38.245 38.9543 37.5372 37.8924 37.0189C36.8433 36.5006 35.5792 36.2478 34.0876 36.2478C32.3937 36.2478 30.9021 36.6017 29.6127 37.3096C28.3234 38.0175 27.2489 39.1678 26.402 40.7479C25.5551 42.3407 24.9483 44.4517 24.5691 47.1062H23.8485V47.0304L24.3162 36.9178H18.2107V47.7762C18.1728 49.6344 17.9958 51.2904 17.6672 52.744C17.3385 54.1977 16.8708 55.4239 16.2767 56.4478C15.67 57.4591 14.9621 58.2428 14.1278 58.7737C13.3061 59.3046 12.3328 59.5701 11.2331 59.5701C9.99425 59.5701 9.02092 59.2793 8.31303 58.6852C7.60515 58.1037 7.08682 57.3326 6.75816 56.3846C6.4295 55.4365 6.22728 54.4 6.16408 53.275C6.10088 52.1499 6.06293 51.0755 6.06293 50.0389V36.9051H0.42511V50.9743C0.42511 52.5291 0.513636 53.9955 0.703247 55.3733C0.892859 56.7512 1.20887 58.0026 1.63865 59.1276C2.06844 60.2527 2.62466 61.2007 3.3199 61.9971C4.01515 62.7935 4.86204 63.4002 5.88594 63.83C6.89721 64.2598 8.09812 64.4747 9.47596 64.4747C11.1698 64.4747 12.6361 64.1208 13.8749 63.4129C15.1137 62.705 16.1376 61.58 16.9466 60.0504C17.7557 58.5209 18.3498 56.511 18.729 54.0208H19.3484L18.9818 63.7921H24.9736V53.5531C25.0115 50.9996 25.3149 48.8001 25.8837 46.9546C26.4525 45.109 27.2742 43.6932 28.336 42.682C29.4105 41.6833 30.7125 41.1777 32.2673 41.1777C33.544 41.1777 34.53 41.4937 35.2379 42.1131C35.9458 42.7325 36.4514 43.5036 36.7674 44.439C37.0834 45.3745 37.2731 46.3352 37.3616 47.3338C37.45 48.3324 37.4879 49.2425 37.4879 50.0768V63.7795H43.1258V49.3437C43.1258 48.1428 43.0499 46.9166 42.8982 45.6652C42.7465 44.4264 42.4811 43.2382 42.1019 42.1258L42.1145 42.1637Z" fill="#F48F56"/>
<path d="M51.8856 27.2351C50.71 27.2351 49.8125 27.4879 49.1931 27.9809C48.5737 28.4865 48.2577 29.2197 48.2577 30.1804C48.2577 31.1411 48.5737 31.8364 49.1931 32.3546C49.8125 32.8729 50.71 33.1257 51.8856 33.1257C53.0612 33.1257 53.9587 32.8729 54.5781 32.3546C55.1975 31.8364 55.5135 31.1158 55.5135 30.1804C55.5135 29.245 55.1975 28.4865 54.5781 27.9809C53.9587 27.4753 53.0612 27.2351 51.8856 27.2351Z" fill="#F48F56"/>
<path d="M54.6796 36.9053H49.0923V63.8049H54.6796V36.9053Z" fill="#F48F56"/>
<path d="M71.2762 59.2037C70.2776 59.2037 69.4307 58.9256 68.7354 58.3821C68.0402 57.8259 67.6989 56.8272 67.6989 55.3862V41.633H74.8409V36.9306H67.6989V30.9768H64.2858L63.9193 34.0232C63.8182 35.0977 63.5022 35.8814 62.9839 36.3997C62.4656 36.918 61.6187 37.1961 60.4431 37.2214H58.5848L58.5343 41.5192H62.2127V55.639C62.2127 56.9789 62.3645 58.1924 62.6552 59.2543C62.946 60.3287 63.401 61.2389 64.0204 61.9973C64.6398 62.7558 65.4488 63.3372 66.4475 63.7544C67.4461 64.1715 68.6596 64.3738 70.0627 64.3738C70.7832 64.3738 71.5417 64.3106 72.338 64.1715C73.1344 64.0325 73.994 63.805 74.9294 63.5016V58.1166C74.3732 58.5337 73.7791 58.8118 73.1218 58.9762C72.4644 59.1279 71.8451 59.2037 71.2636 59.2037H71.2762Z" fill="#F48F56"/>
<path d="M97.5059 54.6022C97.4427 55.2975 97.2657 55.9548 96.9876 56.5995C96.7095 57.2442 96.3177 57.8256 95.8247 58.3566C95.319 58.8875 94.687 59.3173 93.9159 59.6206C93.1448 59.9367 92.1841 60.0883 91.0464 60.0883C88.5309 60.0883 86.5969 59.292 85.257 57.6866C83.9929 56.1823 83.3482 53.9955 83.2724 51.1766L102.069 50.987C102.246 48.6484 102.107 46.5627 101.652 44.7298C101.21 42.8969 100.476 41.3547 99.4526 40.1032C98.4287 38.8392 97.1772 37.8911 95.673 37.2338C94.1687 36.5765 92.4622 36.2478 90.5282 36.2478C88.4298 36.2478 86.5842 36.6144 84.9915 37.3602C83.4114 38.106 82.0714 39.1425 81.0096 40.4698C79.9352 41.7971 79.1262 43.3393 78.5826 45.0964C78.0264 46.8534 77.7609 48.7495 77.7609 50.7847C77.7609 52.8199 78.0391 54.7286 78.6206 56.3972C79.1894 58.0658 80.0237 59.5069 81.1234 60.7204C82.2232 61.9339 83.601 62.8567 85.2317 63.514C86.875 64.1713 88.7964 64.5 90.9959 64.5C92.7909 64.5 94.371 64.2724 95.7488 63.83C97.1267 63.3876 98.3022 62.7429 99.2629 61.9213C100.224 61.0996 100.982 60.1263 101.513 59.0265C102.044 57.9268 102.398 56.7132 102.575 55.4112L97.5059 54.6402V54.6022ZM86.5589 42.0752C87.6461 41.2788 88.9607 40.887 90.5155 40.887C91.9313 40.887 93.1322 41.2156 94.1055 41.873C95.0915 42.5303 95.8247 43.5036 96.305 44.793C96.5958 45.5767 96.7601 46.4742 96.8233 47.4728L83.4746 47.6372C83.6136 46.8534 83.8159 46.1076 84.0813 45.4377C84.6502 43.984 85.4718 42.8716 86.5589 42.0752Z" fill="#F48F56"/>
<path fill-rule="evenodd" clip-rule="evenodd" d="M20.1194 12.3571V8.43848L9.28628 12.4582H9.26105V16.478H9.28628L20.1194 20.5104V16.5791L14.5575 14.4555L20.1194 12.3445V12.3571Z" fill="#F48F56"/>
<path fill-rule="evenodd" clip-rule="evenodd" d="M82.8815 20.5102V16.5916L88.4307 14.4806L82.8815 12.3696V8.45092L93.702 12.4833H93.7272V16.5157H93.702L82.8815 20.5229V20.5102ZM78.2423 2.90161L71.8713 23.3291H75.6509L82.0219 2.90161H78.2423Z" fill="#F48F56"/>
<path fill-rule="evenodd" clip-rule="evenodd" d="M38.0825 7.8947C39.157 9.07029 39.7258 10.6378 39.6626 12.2305V20.9274H35.883V13.0269C35.9336 12.142 35.6428 11.2824 35.0992 10.5872C34.5683 9.98043 33.7973 9.63913 33.0009 9.67705C30.6371 9.67705 29.4488 11.3204 29.4488 14.607V20.9274H25.6693V6.64326H29.4488V7.93262C30.6497 6.76967 32.2677 6.15027 33.949 6.21347C35.5038 6.15027 37.0207 6.75703 38.0952 7.88206L38.0825 7.8947Z" fill="#F48F56"/>
<path fill-rule="evenodd" clip-rule="evenodd" d="M43.6441 0.5V20.9275H47.4237V0.5H43.6441Z" fill="#F48F56"/>
<path fill-rule="evenodd" clip-rule="evenodd" d="M67.5608 20.9275H64.4006L61.3162 12.5088L58.1939 20.9275H55.0464L49.7499 6.61816H53.7823L56.7529 15.176L59.812 6.61816H62.7572L65.8164 15.2013L68.7869 6.61816H72.8193L67.5228 20.9275H67.5608Z" fill="#F48F56"/>
</svg>
